<?xml version="1.0" encoding="UTF-8" standalone="no"?>
<svg
   xmlns:dc="http://purl.org/dc/elements/1.1/"
   xmlns:cc="http://creativecommons.org/ns#"
   xmlns:rdf="http://www.w3.org/1999/02/22-rdf-syntax-ns#"
   xmlns:svg="http://www.w3.org/2000/svg"
   xmlns="http://www.w3.org/2000/svg"
   viewBox="0 0 467.7175 141.7325"
   height="141.7325"
   width="467.7175"
   xml:space="preserve"
   version="1.1"
   id="svg2"><metadata
     id="metadata8"><rdf:RDF><cc:Work
         rdf:about=""><dc:format>image/svg+xml</dc:format><dc:type
           rdf:resource="http://purl.org/dc/dcmitype/StillImage" /></cc:Work></rdf:RDF></metadata><defs
     id="defs6"><clipPath
       id="clipPath16"
       clipPathUnits="userSpaceOnUse"><path
         id="path18"
         d="m 0,113.386 374.174,0 L 374.174,0 0,0 0,113.386 Z" /></clipPath></defs><g
     transform="matrix(1.25,0,0,-1.25,0,141.7325)"
     id="g10"><g
       id="g12"><g
         clip-path="url(#clipPath16)"
         id="g14"><g
           transform="translate(306.8755,51.0366)"
           id="g20"><path
             id="path22"
             style="fill:#1d4e9e;fill-opacity:1;fill-rule:nonzero;stroke:none"
             d="m 0,0 c 0,-5.355 0.766,-7.99 2.975,-10.115 2.211,-2.125 6.554,-3.487 10.466,-3.487 5.356,0 10.721,1.956 12.25,5.102 0.85,1.699 1.19,4.164 1.19,8.5 l 0,34.002 12.072,0 0,-33.406 c 0,-8.756 -1.785,-14.282 -5.695,-17.852 -4.592,-3.996 -11.656,-5.865 -20.072,-5.865 -8.756,0 -15.567,1.955 -19.647,5.779 -4.25,3.996 -5.609,8.16 -5.609,17.086 l 0,34.258 12.07,0 L 0,0 Z" /></g><path
           id="path24"
           style="fill:#66c430;fill-opacity:1;fill-rule:nonzero;stroke:none"
           d="m 246.616,28.351 36.115,0 0,10.217 -36.115,0 0,-10.217 z" /><g
           transform="translate(246.6157,85.0386)"
           id="g26"><path
             id="path28"
             style="fill:#66c430;fill-opacity:1;fill-rule:nonzero;stroke:none"
             d="M 0,0 0,-34.016 32.291,0 0,0 Z" /></g><g
           transform="translate(282.731,48.7915)"
           id="g30"><path
             id="path32"
             style="fill:#ffffff;fill-opacity:1;fill-rule:nonzero;stroke:none"
             d="M 0,0 -22.418,0 0,23.674 0,0 Z m -3.824,36.248 -32.291,-34.016 0,-12.455 36.115,0 0,-10.222 12.072,0 0,56.693 -15.896,0 z" /></g><g
           transform="translate(260.313,48.7915)"
           id="g34"><path
             id="path36"
             style="fill:#1d4e9e;fill-opacity:1;fill-rule:nonzero;stroke:none"
             d="M 0,0 22.418,23.674 22.418,0 0,0 Z" /></g><g
           transform="translate(184.2529,38.5679)"
           id="g38"><path
             id="path40"
             style="fill:#1d4e9e;fill-opacity:1;fill-rule:nonzero;stroke:none"
             d="m 0,0 27.703,0 c 4.422,0 6.887,0.233 8.332,1.168 1.869,1.105 2.975,2.971 2.975,5.266 0,2.55 -1.36,4.845 -3.485,5.949 -1.275,0.765 -3.486,1.212 -6.377,1.212 l -12.431,0 c -6.545,0 -10.967,0.999 -13.856,3.378 -3.57,2.976 -5.695,7.65 -5.695,12.752 0,6.97 3.824,13.261 9.349,15.386 2.721,1.02 5.696,1.36 12.667,1.36 l 26.173,0 0,-10.064 -25.577,0 c -5.272,0 -7.227,-0.221 -8.586,-0.902 -1.786,-1.021 -2.805,-2.89 -2.805,-5.441 0,-2.21 0.933,-4.08 2.549,-5.185 1.531,-0.936 3.4,-1.066 7.822,-1.066 l 11.779,0 c 8.16,0 12.496,-1.399 15.896,-4.545 2.721,-2.633 4.59,-7.735 4.59,-12.834 0,-5.782 -2.635,-11.301 -6.885,-14.107 -2.89,-1.955 -6.46,-2.55 -15.216,-2.55 L 0,-10.223 0,0 Z" /></g><g
           transform="translate(136.7969,51.0366)"
           id="g42"><path
             id="path44"
             style="fill:#1d4e9e;fill-opacity:1;fill-rule:nonzero;stroke:none"
             d="m 0,0 c 0,-5.355 0.765,-7.99 2.975,-10.115 2.21,-2.125 6.554,-3.487 10.465,-3.487 5.356,0 10.721,1.956 12.251,5.102 0.85,1.699 1.19,4.164 1.19,8.5 l 0,34.002 12.071,0 0,-33.406 c 0,-8.756 -1.785,-14.282 -5.695,-17.852 -4.591,-3.996 -11.656,-5.865 -20.071,-5.865 -8.756,0 -15.567,1.955 -19.647,5.779 -4.25,3.996 -5.61,8.16 -5.61,17.086 l 0,34.258 L 0,34.002 0,0 Z" /></g><g
           transform="translate(97.1123,85.0386)"
           id="g46"><path
             id="path48"
             style="fill:#1d4e9e;fill-opacity:1;fill-rule:nonzero;stroke:none"
             d="m 0,0 0,-46.471 24.778,0 0,-10.222 -36.85,0.002 0,56.691 L 0,0 Z" /></g><g
           transform="translate(57.2695,58.2642)"
           id="g50"><path
             id="path52"
             style="fill:#1d4e9e;fill-opacity:1;fill-rule:nonzero;stroke:none"
             d="m 0,0 c 3.061,0 4.931,0.426 6.205,1.444 1.615,1.276 2.636,4.08 2.636,7.311 0,3.655 -1.445,6.29 -3.995,7.309 -1.021,0.426 -2.466,0.647 -4.591,0.647 l -17.106,0 L -16.851,0 0,0 Z m -16.851,-29.919 -12.072,0 0,56.692 28.753,0 c 9.691,0 13.261,-1.019 16.916,-4.844 3.485,-3.654 5.356,-8.414 5.356,-13.6 0,-5.779 -2.21,-11.22 -5.951,-14.533 -3.4,-2.976 -6.546,-3.91 -13.175,-3.91 l -19.827,0 0,-19.805 z" /></g></g></g></g></svg>