<?xml version="1.0" encoding="UTF-8" standalone="no"?>
<svg
   xmlns:dc="http://purl.org/dc/elements/1.1/"
   xmlns:cc="http://creativecommons.org/ns#"
   xmlns:rdf="http://www.w3.org/1999/02/22-rdf-syntax-ns#"
   xmlns:svg="http://www.w3.org/2000/svg"
   xmlns="http://www.w3.org/2000/svg"
   viewBox="0 0 715.74878 216.1425"
   height="216.1425"
   width="715.74878"
   xml:space="preserve"
   version="1.1"
   id="svg2"><metadata
     id="metadata8"><rdf:RDF><cc:Work
         rdf:about=""><dc:format>image/svg+xml</dc:format><dc:type
           rdf:resource="http://purl.org/dc/dcmitype/StillImage" /></cc:Work></rdf:RDF></metadata><defs
     id="defs6"><clipPath
       id="clipPath16"
       clipPathUnits="userSpaceOnUse"><path
         id="path18"
         d="m 0,172.914 572.599,0 L 572.599,0 0,0 0,172.914 Z" /></clipPath></defs><g
     transform="matrix(1.25,0,0,-1.25,0,216.1425)"
     id="g10"><g
       id="g12"><g
         clip-path="url(#clipPath16)"
         id="g14"><g
           transform="translate(467.7744,67.9082)"
           id="g20"><path
             id="path22"
             style="fill:#154281;fill-opacity:1;fill-rule:nonzero;stroke:none"
             d="m 0,0 c 11.779,3.201 13.994,11.92 14.266,16.83 0.366,6.555 -3.387,11.66 -6.711,14.043 -2.936,2.264 -7.102,3.266 -13.535,3.266 l -19.749,-0.039 -11.183,-56.655 12.537,0 8.922,46.082 7.387,0 c 5.828,0 9.959,-0.48 9.998,-6.687 0.029,-4.578 -2.883,-7.408 -8.903,-8.656 -3.814,-0.791 -7.89,-1.512 -9.718,-1.829 l 15.113,-28.91 13.15,0 L -0.896,-0.244 0,0 Z" /></g><g
           transform="translate(194.8389,102.0464)"
           id="g24"><path
             id="path26"
             style="fill:#154281;fill-opacity:1;fill-rule:nonzero;stroke:none"
             d="m 0,0 -5.882,-31.211 c -0.336,-1.767 -0.588,-4.117 -0.588,-6.894 0.084,-5.043 3.28,-9.17 9.583,-9.17 7.402,0 12.2,4.793 14.306,16.064 L 23.305,0 36.008,0 30.114,-31.043 C 26.588,-49.379 18.335,-57.704 1.515,-57.704 c -12.531,-0.083 -20.606,6.304 -20.606,19.599 0,2.525 0.337,5.211 0.757,7.652 L -12.609,0 0,0 Z" /></g><g
           transform="translate(231.6406,45.3545)"
           id="g28"><path
             id="path30"
             style="fill:#154281;fill-opacity:1;fill-rule:nonzero;stroke:none"
             d="m 0,0 10.683,56.692 15.817,0 8.499,-21.367 c 2.6,-7.148 4.284,-13.117 5.883,-19.937 l 0.253,0 c 0.085,5.726 0.84,10.767 2.36,18.675 l 4.199,22.629 12.114,0 L 49.125,0 35.334,0 26.332,23.135 c -2.691,7.569 -4.631,13.116 -6.395,20.014 l -0.337,0 C 19.01,37.681 17.668,30.114 16.069,21.45 L 12.029,0 0,0 Z" /></g><g
           transform="translate(316.1768,102.0469)"
           id="g32"><path
             id="path34"
             style="fill:#154281;fill-opacity:1;fill-rule:nonzero;stroke:none"
             d="m 0,0 -10.761,-56.692 -12.622,0 L -12.614,0 0,0 Z" /></g><g
           transform="translate(360.5664,45.582)"
           id="g36"><path
             id="path38"
             style="fill:#154281;fill-opacity:1;fill-rule:nonzero;stroke:none"
             d="m 0,0 c -2.439,-0.563 -5.72,-1.251 -12.86,-1.247 -15.22,0.008 -27.925,7.986 -27.925,25.649 0,12.453 6.139,21.959 15.472,27.431 6.233,3.78 13.377,5.632 22.129,5.632 7.229,0 10.132,-1.243 13.14,-2.308 L 7.824,44.645 c -1.767,0.839 -6.378,2.138 -12.103,2.138 -5.551,0 -10.684,-1.43 -14.464,-4.284 -5.054,-3.538 -8.241,-9.507 -8.241,-17.003 0,-9.673 6.132,-16.062 17.576,-16.062 4.623,0 8.129,0.151 11.498,1.582 L 0,0 Z" /></g><g
           transform="translate(395.8623,54.7617)"
           id="g40"><path
             id="path42"
             style="fill:#154281;fill-opacity:1;fill-rule:nonzero;stroke:none"
             d="M 0,0 C 4.377,0 8.412,1.854 11.441,4.961 15.563,9.002 18,15.309 18,21.959 c 0,8.242 -3.189,15.896 -13.79,15.896 -4.632,0 -8.579,-1.935 -11.694,-5.042 -4.295,-4.296 -6.727,-10.684 -6.727,-17 C -14.211,6.223 -9.592,0 -0.084,0 L 0,0 Z m -1.852,-10.427 c -15.471,0 -25.988,9.839 -25.988,25.314 0,9.843 3.787,18.347 10.095,24.314 5.88,5.717 14.209,9.084 23.386,9.084 15.896,0 25.992,-9.672 25.992,-25.566 0,-9.674 -3.537,-18.096 -9.758,-24.065 -5.811,-5.715 -14.055,-9.081 -23.643,-9.081 l -0.084,0 z" /></g><g
           transform="translate(484.4482,45.353)"
           id="g44"><path
             id="path46"
             style="fill:#154281;fill-opacity:1;fill-rule:nonzero;stroke:none"
             d="m 0,0 10.682,56.693 15.81,0 8.496,-21.369 c 2.61,-7.147 4.289,-13.117 5.893,-19.934 l 0.25,0 c 0.084,5.724 0.842,10.765 2.346,18.673 l 4.212,22.63 12.116,0 L 49.119,0 35.324,0 l -9,23.135 c -2.695,7.568 -4.621,13.116 -6.386,20.013 l -0.338,0 C 19.01,37.68 17.664,30.112 16.063,21.451 L 12.031,0 0,0 Z" /></g><g
           transform="translate(102.7368,143.896)"
           id="g48"><path
             id="path50"
             style="fill:#ffffff;fill-opacity:1;fill-rule:nonzero;stroke:none"
             d="m 0,0 c 0.409,-0.331 0.601,-0.841 0.833,-1.453 0.263,-0.698 0.559,-1.482 1.267,-2.073 0.434,-2.968 2.268,-5.165 4.043,-7.292 0.612,-0.734 1.246,-1.494 1.821,-2.281 l 0.062,-0.085 0.091,-0.052 c 0.619,-0.359 1.837,-0.961 3.039,-0.961 0.536,0 1.007,0.122 1.389,0.357 1.291,0.749 2.26,1.155 3.681,1.155 0.466,0 0.988,-0.042 1.589,-0.129 0.178,-0.247 0.341,-0.509 0.437,-0.699 -1.64,-0.642 -2.856,-1.297 -3.905,-2.096 l -0.495,-0.378 0.475,-0.402 c 0.298,-0.252 0.73,-0.375 1.319,-0.375 0.727,0 1.607,0.185 2.383,0.349 0.434,0.091 0.844,0.177 1.152,0.215 0.347,0.042 0.668,0.087 0.969,0.13 0.66,0.092 1.229,0.173 1.746,0.173 0.897,0 1.647,-0.26 2.559,-0.89 0.054,-0.125 0.103,-0.238 0.149,-0.343 0.258,-0.591 0.388,-0.887 0.499,-1.531 -0.684,0.179 -1.283,0.266 -1.817,0.266 -1.396,0 -2.173,-0.598 -2.925,-1.177 -0.614,-0.473 -1.25,-0.962 -2.318,-1.204 l -0.813,-0.184 0.546,-0.631 c 0.304,-0.351 0.657,-0.522 1.079,-0.522 0.262,0 0.509,0.067 0.748,0.131 0.234,0.064 0.456,0.124 0.688,0.124 0.173,0 0.338,-0.035 0.496,-0.102 0.578,-0.262 0.923,-0.626 1.323,-1.047 0.743,-0.783 1.581,-1.667 3.97,-1.878 0.688,-1.056 1.378,-1.551 2.161,-1.551 0.722,0 1.348,0.439 1.954,0.863 0.384,0.269 0.781,0.547 1.184,0.7 l 0.029,0.011 0.027,0.015 c 1.311,0.692 2.363,0.824 3.845,0.824 0.364,0 0.75,-0.008 1.167,-0.016 0.498,-0.01 1.039,-0.021 1.64,-0.021 l 0.239,0 0.15,0.186 c 1.566,1.937 4.944,3.189 8.606,3.189 0.762,0 1.5,-0.055 2.193,-0.165 l 0.074,-0.012 0.075,0.01 c 1.243,0.178 1.811,0.994 2.313,1.714 0.29,0.416 0.564,0.81 0.96,1.111 l 0.619,0.204 c 2.875,0.951 4.065,1.344 8.286,1.344 0.643,0 1.356,-0.009 2.148,-0.028 l 0.295,-0.007 0.149,0.255 c 1.744,2.989 4.691,3.18 7.812,3.382 2.569,0.166 5.221,0.338 7.25,2.125 1.012,0.434 2.315,0.521 3.573,0.605 0.939,0.062 1.908,0.126 2.816,0.349 0.752,0.261 1.635,0.529 2.457,0.529 0.44,0 0.828,-0.074 1.182,-0.227 0.259,-0.318 0.259,-0.631 0.211,-0.844 -0.086,-0.38 -0.399,-0.716 -0.825,-0.881 -0.964,-0.404 -1.91,-1.143 -2.912,-1.925 -1.543,-1.204 -3.136,-2.449 -4.81,-2.449 -0.239,0 -0.477,0.026 -0.709,0.076 l -0.258,0.057 -0.191,-0.182 c -0.666,-0.629 -1.186,-1.276 -1.643,-1.847 -1.094,-1.362 -1.883,-2.345 -3.93,-2.518 -3.365,-0.174 -4.916,-1.742 -6.283,-3.125 -1.283,-1.3 -2.392,-2.423 -4.846,-2.423 -0.181,0 -0.369,0.007 -0.564,0.019 -0.209,0.014 -0.414,0.02 -0.613,0.02 -3.1,0 -5.042,-1.545 -7.096,-3.18 -2.268,-1.806 -4.613,-3.673 -8.869,-3.673 -0.454,0 -0.928,0.022 -1.41,0.065 l -0.228,0.02 -0.164,-0.159 c -4.004,-3.88 -7.324,-6.628 -13.61,-6.658 l -0.792,-0.004 0.344,-0.713 c 0.276,-0.571 0.444,-0.852 0.64,-1.178 0.112,-0.187 0.236,-0.394 0.391,-0.671 0.672,-1.343 1.911,-2.798 3.11,-4.205 1.104,-1.295 2.245,-2.634 2.849,-3.792 0.271,-0.983 0.518,-1.992 0.756,-2.968 0.444,-1.817 0.904,-3.697 1.536,-5.476 l 0.027,-0.077 0.05,-0.063 c 1.006,-1.293 2.004,-2.95 3.059,-4.704 0.675,-1.121 1.372,-2.279 2.101,-3.389 0.749,-2.516 2.33,-4.261 3.859,-5.95 1.574,-1.737 3.2,-3.533 3.942,-6.206 l 0.029,-0.101 0.066,-0.081 c 0.297,-0.363 0.648,-0.69 0.988,-1.006 1.064,-0.989 1.697,-1.656 1.27,-2.898 -0.323,-1.19 -0.514,-2.502 -0.699,-3.771 -0.593,-4.061 -1.153,-7.897 -5.707,-8.494 l -0.099,-0.012 -0.086,-0.05 c -0.964,-0.555 -3.599,-1.62 -5.78,-1.793 l -1.289,1.29 -0.395,0.396 -0.349,-0.437 c -0.482,-0.603 -0.568,-1.206 -0.645,-1.738 -0.041,-0.287 -0.081,-0.563 -0.181,-0.832 -0.278,0.012 -0.555,0.018 -0.839,0.018 -1.044,0 -1.96,-0.083 -2.767,-0.156 -0.679,-0.061 -1.321,-0.119 -1.937,-0.119 -2.275,0 -4.392,0.799 -8.487,4.878 -1,0.995 -1.261,2.438 -1.305,3.474 l -0.011,0.273 -0.236,0.138 c -0.941,0.55 -1.997,1.705 -3.018,2.822 -1.265,1.385 -2.574,2.817 -3.901,3.411 l -0.07,0.031 -0.075,0.009 c -1.038,0.124 -2.116,0.171 -3.157,0.217 -3.582,0.156 -6.966,0.304 -9.118,3.38 l -0.262,0.376 -0.398,-0.23 c -1.197,-0.692 -0.835,-1.993 -0.596,-2.853 0.074,-0.267 0.144,-0.518 0.17,-0.723 l 0.018,-0.144 0.091,-0.111 c 1.071,-1.305 1.26,-3.036 1.46,-4.868 0.23,-2.108 0.468,-4.286 2.148,-5.82 0.277,-0.589 0.248,-1.329 0.217,-2.11 -0.009,-0.217 -0.018,-0.439 -0.019,-0.66 -0.327,-0.043 -0.667,-0.068 -1.021,-0.094 -1.442,-0.107 -3.066,-0.227 -4.111,-1.695 -0.142,0.003 -0.282,0.005 -0.422,0.005 -4.293,0 -7.915,-1.685 -11.418,-3.315 -3.232,-1.504 -6.573,-3.059 -10.39,-3.225 l -0.102,-0.005 -0.093,-0.045 c -4.798,-2.315 -10.436,-4.838 -16.626,-5.451 l -0.066,-0.007 -0.062,-0.023 c -4.993,-1.901 -10.67,-2.506 -16.161,-3.091 -1.94,-0.207 -3.946,-0.421 -5.898,-0.689 l -0.108,-0.015 -0.091,-0.057 c -0.587,-0.371 -1.21,-0.55 -1.904,-0.55 -1.533,0 -3.14,0.892 -4.557,1.68 -0.419,0.233 -0.822,0.456 -1.203,0.648 l -0.423,0.212 -0.235,-0.411 c -0.112,-0.196 -0.171,-0.403 -0.224,-0.585 -0.062,-0.218 -0.108,-0.353 -0.179,-0.446 -1.983,0.577 -3.537,2.096 -3.994,3.923 l -0.016,0.066 -0.033,0.058 c -0.336,0.597 -0.799,0.723 -1.128,0.723 -0.216,0 -0.427,-0.054 -0.626,-0.133 0.864,3.534 2.162,7.063 5.093,9.669 l 0.043,0.038 0.033,0.046 c 2.394,3.373 0.912,6.904 -0.395,10.02 -0.422,1.008 -0.822,1.96 -1.096,2.888 -0.253,1.534 -0.873,3.017 -1.472,4.451 -1.2,2.871 -2.334,5.584 -0.75,8.678 2.092,3.912 2.991,8.243 2.532,12.196 l -0.003,0.029 -0.006,0.029 c -0.144,0.607 -0.391,1.228 -0.652,1.885 -0.743,1.867 -1.444,3.631 0.183,4.988 l 0.132,0.11 0.036,0.168 c 0.28,1.29 0.843,2.451 1.438,3.68 1.012,2.086 2.057,4.244 1.597,7.035 0.024,0.832 -0.135,1.57 -0.289,2.284 -0.141,0.654 -0.273,1.273 -0.26,1.93 0.865,2.165 2.464,3.841 4.012,5.463 2.198,2.304 4.471,4.687 4.506,8.367 0.19,1.894 0.691,3.261 1.617,4.395 2.305,0.153 4.08,1.46 5.799,2.725 1.058,0.779 2.152,1.584 3.333,2.075 l 0.124,0.052 0.082,0.106 c 0.364,0.477 0.706,1.042 1.07,1.641 1.049,1.731 2.134,3.52 3.857,3.52 0.276,0 0.57,-0.047 0.872,-0.138 l 0.085,-0.026 0.088,0.005 c 2.49,0.136 4.577,1.448 6.596,2.716 1.994,1.253 3.877,2.437 6.008,2.437 0.671,0 1.327,-0.116 2.003,-0.353 l 0.056,-0.02 0.059,-0.006 c 0.937,-0.095 1.92,-0.315 2.96,-0.548 1.48,-0.331 3.009,-0.673 4.529,-0.673 1.599,0 2.952,0.387 4.136,1.182 l 0.049,0.033 0.039,0.043 c 0.463,0.501 0.935,0.734 1.488,0.734 0.643,0 1.33,-0.304 2.059,-0.625 0.793,-0.351 1.614,-0.713 2.473,-0.713 0.056,0 0.112,0.001 0.169,0.005 0.981,-0.716 2.174,-0.873 3.331,-1.025 0.56,-0.074 1.088,-0.143 1.585,-0.272 l 0.109,-0.029 0.11,0.021 c 2.857,0.547 3.187,2.921 3.479,5.015 C -0.655,-1.987 -0.498,-0.858 0,0" /></g><g
           transform="translate(142.8193,66.1348)"
           id="g52"><path
             id="path54"
             style="fill:#154281;fill-opacity:1;fill-rule:nonzero;stroke:none"
             d="M 0,0 C -0.725,-1.691 1.511,-2.659 0.726,-4.35 0.241,-5.922 1.33,-6.949 2.78,-6.828 3.383,-6.406 4.773,-6.587 4.652,-5.559 5.075,-2.598 1.933,-1.209 0,0 m -24.223,34.926 c -1.449,-0.785 -4.168,-0.061 -4.348,-2.297 1.751,-0.361 3.987,0.725 5.496,-0.302 -1.45,-1.268 -4.35,-1.45 -4.471,-3.626 1.632,-0.482 2.538,-3.021 4.229,-3.323 2.114,0.847 6.344,-0.181 6.765,3.021 -2.657,2.237 -3.14,7.07 -7.671,6.527 m 61.674,27.131 c -1.994,1.389 -5.617,1.389 -7.551,-0.725 -3.23,-1.843 2.479,-1.995 3.807,-2.054 2.053,0 2.777,1.209 3.744,2.779 M 27.303,56.799 c -2.295,-0.241 -3.383,2.297 -5.799,1.753 -1.449,0.061 -3.081,-1.147 -3.745,-2.477 1.149,-0.544 2.899,-1.208 4.348,-1.873 2.116,0.242 4.231,0.482 5.196,2.597 M 14.135,52.932 c -1.754,1.209 -3.988,1.33 -6.223,1.27 -3.141,-0.243 -3.563,-3.022 -5.436,-4.473 2.899,-1.42 2.295,-1.42 4.62,-1.721 2.357,0.665 6.433,2.568 7.039,4.924 M 0.059,46.104 c -5.105,3.716 -6.766,3.685 -9.846,1.269 0,0 3.684,-3.746 -1.571,-3.143 0,0 2.538,-1.509 2.779,-2.355 3.987,-0.363 4.954,1.026 6.344,2.9 0.784,0.725 1.267,0.514 2.294,1.329 M -10.814,27.977 c -2.115,1.45 -4.591,1.752 -6.222,3.626 1.209,1.811 3.08,-0.302 4.651,-0.423 0.303,0.241 1.209,0 0.967,0.724 -1.45,3.807 -7.249,0.725 -8.82,4.35 1.752,1.693 5.257,0.182 6.826,1.269 -0.421,1.209 -2.054,1.39 -3.081,2.055 -1.691,0.182 -3.322,-0.423 -4.469,0.423 1.448,1.571 3.563,1.813 5.678,1.451 -1.028,2.296 -4.23,0.423 -5.981,1.569 -2.053,-1.691 -5.981,-1.085 -6.342,-4.591 -0.605,-1.269 -2.175,-2.356 -3.625,-1.934 -1.993,-0.361 -1.631,-2.537 -2.658,-3.746 -0.845,0.242 -1.329,-0.482 -1.994,-0.725 -0.784,-1.994 1.994,-1.51 2.477,-3.021 -1.933,-1.45 -4.59,-0.906 -7.007,-1.027 l 0,-1.451 c -1.69,-1.208 -3.383,0.787 -5.074,1.269 -3.685,2.417 -1.329,-2.9 -1.994,-4.352 1.874,-2.476 -1.812,-3.14 -1.027,-5.92 1.209,-3.927 1.33,-8.761 4.954,-11.299 0.363,4.652 -2.718,9.547 -0.182,14.079 0.485,-0.364 1.269,0.664 1.633,-0.303 -0.666,-4.895 0.18,-10.03 2.596,-13.958 0.544,-0.181 1.511,-0.544 1.873,0 -0.543,2.659 -1.329,5.378 -1.027,8.157 0.966,0.906 1.39,2.901 3.081,2.297 -0.363,-4.652 1.631,-8.701 2.174,-13.174 1.45,-1.026 1.555,-3.73 2.9,-4.048 -0.12,1.028 -0.302,2.117 -1.026,2.902 -0.061,1.752 -0.725,3.745 0.542,5.075 1.994,-2.237 1.994,-5.317 3.624,-7.735 2.901,-2.235 -0.543,1.813 0.182,3.082 -0.182,2.054 -2.234,4.23 -0.182,6.103 2.463,-5.258 2.57,-6.205 3.202,-7.297 0.997,-1.208 1.225,2.417 2.554,-2.915 2.445,-1.087 -0.952,4.954 1.796,4.033 0.952,0.318 0.876,-0.588 1.027,-1.977 0.906,-2.992 1.284,-4.05 2.174,-6.527 0.468,-0.922 0.998,-0.846 2.13,-1.028 1.068,0.202 -0.336,-3.116 0.572,-5.045 0.712,-0.74 1.353,-1.166 1.353,-1.166 l 0.658,-0.782 c 0.438,-0.681 0.513,-0.757 0.966,-1.104 2.115,-3.051 2.115,-2.295 5.316,-2.174 0.482,-0.242 0,0.664 0,1.026 l -3.066,3.218 c -1.117,1.601 -1.464,5.363 -2.855,6.752 -0.482,0.726 -1.51,-0.014 -1.63,1.301 -2.537,1.994 1.933,2.566 2.175,4.078 1.208,0.362 2.205,-0.756 3.171,-1.481 0.816,-2.629 4.138,-3.082 5.589,-6.193 1.267,-2.326 2.626,-4.29 4.74,-5.108 2.718,-0.996 3.172,0.667 5.104,1.785 5.317,4.319 1.148,6.465 0.424,9.244 0.242,2.78 -2.96,4.109 -4.773,5.257 -0.151,1.451 0.755,2.054 -1.027,2.718 -2.9,0.364 -5.195,2.358 -7.37,4.11 -1.812,1.269 -4.952,1.572 -5.375,3.867 3.02,0.666 5.256,-1.993 8.095,-1.873 0.301,2.599 -2.296,2.418 -3.746,3.928 -0.241,1.148 -1.148,1.752 -2.053,2.477 -0.665,1.753 1.388,0.242 2.173,0.726 1.087,3.383 -4.892,4.228 -2.718,7.371 -0.422,0.846 -1.269,1.692 -2.053,2.055 m 7.55,-41.633 c -1.027,2.84 -2.839,4.863 -4.952,7.25 0.544,-2.235 1.585,-5.633 2.929,-6.102 0.846,-0.181 1.239,-1.511 2.023,-1.148 m -35.942,-2.599 c -3.503,0.302 -6.222,2.236 -9.604,2.72 -5.618,3.564 -12.383,5.378 -16.672,11.359 0.664,1.45 -1.33,3.082 0.603,3.867 2.296,-2.839 5.075,-4.653 7.671,-7.371 1.088,-0.363 2.357,-0.363 3.203,-1.33 3.503,0.242 5.195,-3.082 8.517,-3.322 1.39,-1.089 3.926,-0.363 5.558,-0.424 -0.121,0.543 0.242,1.27 -0.302,1.571 -8.457,2.779 -16.552,6.223 -23.801,12.206 0.484,0.907 0.302,2.115 0.725,3.021 1.51,-0.241 2.598,-1.088 3.625,-1.872 2.536,-3.203 6.766,-4.473 9.847,-6.829 2.96,0.061 4.953,-2.658 7.853,-2.175 0.966,1.57 -1.148,2.115 -1.028,3.625 -4.229,0.846 -8.577,1.874 -12.142,3.928 -3.021,1.994 -6.948,3.263 -8.275,6.828 -0.121,0.724 0.603,1.391 1.268,1.329 0.967,-0.24 1.147,-1.208 1.45,-1.933 3.02,-2.418 6.282,-4.109 9.725,-5.5 1.027,-0.059 2.115,0.122 3.081,-0.121 0.604,0.182 0,0.786 0,1.15 -2.296,1.268 -4.108,3.626 -6.404,4.772 -2.174,1.392 -5.134,0.967 -7.127,2.902 -0.302,1.026 -0.06,2.537 0.603,3.504 2.115,-2.054 4.653,-4.35 7.672,-2.9 0.061,0.967 -0.543,1.691 -1.027,2.477 -1.449,2.236 -6.705,2.357 -5.074,6.043 2.053,-0.182 3.504,-3.203 6.101,-1.874 0.363,3.565 -4.349,4.592 -4.651,7.856 2.598,1.691 3.323,-2.417 6.102,-1.753 0.482,2.115 -0.727,4.593 -1.028,6.949 2.235,1.753 0.121,4.169 0.181,6.224 0.363,2.599 3.444,2.538 3.202,5.379 -0.725,3.201 -0.302,6.283 -1.027,9.425 -3.202,-1.148 -3.443,-5.439 -3.927,-8.701 -1.449,-2.478 1.631,-4.351 0.121,-6.646 -0.664,0 -1.209,0.423 -1.691,1.026 -0.966,5.56 -0.543,11.723 2.416,16.195 -0.121,0.302 -0.422,0.785 -0.846,0.604 -3.503,-1.571 -4.59,-5.378 -4.651,-9.003 0.363,-2.841 0.303,-5.982 1.751,-8.279 -0.06,-0.362 -0.241,-0.906 -0.845,-0.725 -3.08,2.537 -3.08,6.344 -3.926,9.729 -1.752,-1.935 -1.752,-5.076 -2.476,-7.675 -0.061,-0.906 0.906,-1.752 0.12,-2.598 0.665,-3.262 1.027,-6.647 2.054,-9.727 -0.302,-0.485 -0.785,-0.545 -1.329,-0.606 -0.545,1.028 -2.054,1.692 -1.691,3.081 -1.814,2.538 -1.39,5.984 -2.054,9.004 -0.121,-0.665 -0.906,-1.026 -1.027,-1.632 -1.027,-3.02 -1.872,-7.552 0.725,-10.15 0.06,-1.934 1.691,-2.779 2.356,-4.473 -0.363,-1.873 1.812,-3.082 0.966,-4.773 -1.208,0.061 -2.598,0.847 -3.745,1.571 -0.605,5.075 -4.35,8.884 -4.651,14.079 -0.544,3.626 -1.089,7.494 -2.477,10.575 -0.363,-3.081 -0.483,-6.949 -0.423,-10.575 -0.06,-3.202 1.691,-5.619 1.148,-9.004 1.208,-0.844 1.932,-4.047 1.932,-4.047 l 0.846,-1.752 c 0,0 3.02,-4.472 4.048,-7.13 0.422,-0.061 0.422,-0.906 0,-1.149 -3.021,0.967 -5.256,2.84 -5.8,6.103 -4.047,4.774 -3.684,11.36 -5.073,17.282 -0.544,2.598 0.603,5.075 -0.544,7.372 -0.604,-0.968 -1.209,-1.934 -1.209,-3.203 0.605,-6.103 -0.362,-12.991 3.081,-17.825 0.423,-4.351 4.108,-7.313 3.624,-12.026 2.357,-1.207 0.665,-4.349 2.599,-5.8 0.543,-0.604 -0.544,-0.846 -0.846,-1.027 -0.423,0.242 -1.027,0.665 -1.027,1.148 -1.873,0.967 -0.294,3.414 -2.651,4.2 -0.362,4.894 -4.84,8.61 -4.78,13.505 -3.141,4.713 -1.691,9.305 -2.899,14.622 -0.906,-1.692 -1.209,-4.712 -0.845,-7.251 2.053,-6.707 1.148,-15.861 6.946,-20.454 0.061,-0.724 0.544,-2.357 -0.423,-2.478 -1.872,2.961 -3.624,5.288 -5.92,8.006 -0.906,5.5 -2.899,10.998 -3.08,16.86 -0.484,-0.604 -0.484,-1.45 -0.846,-2.053 0.846,-6.164 1.692,-12.389 3.202,-18.25 0.06,-0.303 0.423,-0.664 0.724,-0.725 0.604,-2.659 2.718,-4.773 3.444,-7.251 0.12,-0.241 -0.242,-0.241 -0.121,-0.483 2.778,-2.658 3.382,-6.405 6.101,-8.943 0.725,-1.753 2.054,-3.445 2.175,-5.257 -0.605,-0.242 -1.209,0.423 -1.753,0.604 -3.322,3.566 -5.617,8.339 -8.698,12.025 -1.328,5.558 -4.349,10.453 -5.799,15.952 -0.543,1.389 0.544,3.383 -1.026,3.746 0.362,-7.794 1.63,-14.744 5.376,-21.148 2.174,-2.539 2.9,-5.801 5.618,-7.977 1.148,-1.149 1.207,-3.08 3.081,-3.746 0.301,-0.543 0.06,-1.147 -0.424,-1.45 -2.597,1.389 -4.47,3.565 -6.101,5.619 -2.174,0.243 -2.295,2.598 -2.779,4.229 -3.382,3.264 -3.986,7.917 -6.1,11.904 0.543,-3.323 1.389,-6.404 2.476,-9.425 3.624,-5.499 5.799,-11.602 11.9,-15.53 0.303,-1.572 2.174,-1.149 2.779,-2.477 -1.39,-2.056 -1.239,-1.179 -2.779,0.302 -3.262,2.357 -7.37,6.042 -10.45,9.125 -1.511,1.812 -2.114,4.41 -3.625,5.8 -0.181,-2.175 0.907,-3.746 1.329,-5.68 3.021,-5.197 7.31,-10.272 11.719,-14.925 -0.362,-0.545 -1.208,-0.483 -1.751,-0.302 -2.296,2.538 -5.738,3.444 -6.766,6.827 -3.081,1.692 -3.806,5.56 -6.283,8.158 0.363,-7.07 5.256,-13.777 11.356,-16.556 0.786,-0.664 0.061,-2.357 1.27,-2.477 0.604,1.086 1.872,1.148 2.778,1.873 5.075,-0.664 9.847,-0.362 13.773,2.658 -2.9,1.692 -7.007,2.78 -6.947,6.95 0.242,0.241 0.604,1.026 1.148,0.543 0.664,-0.363 1.268,-1.088 1.449,-1.873 3.021,-1.086 5.377,-3.626 9.122,-3.446 4.289,0.183 -1.329,1.694 -2.054,2.6 -3.503,1.691 -6.584,5.197 -8.94,7.976 0.302,1.027 0.241,2.416 1.269,3.022 4.047,-6.467 10.752,-9.609 17.397,-10.575 0.302,0.302 0.845,0.544 0.424,1.026 -5.015,1.633 -9.666,4.412 -13.774,8.098 -0.966,1.632 -3.564,1.389 -3.745,3.626 0.482,1.329 -0.363,3.323 0.725,4.229 6.463,-8.701 16.128,-13.777 26.398,-13.958 0.603,0.181 1.268,0.847 1.026,1.631 m -42.345,-14.501 c -2.84,2.779 -6.161,5.075 -9,8.096 -1.33,-3.867 2.476,-6.283 4.228,-9.244 0.484,-0.302 1.087,-0.485 1.691,-0.485 1.148,0.364 3.504,-0.24 3.081,1.633 m -5.98,-1.873 c -2.356,1.026 -3.262,3.928 -5.316,5.316 -0.967,-1.208 0.966,-3.382 0,-4.652 -2.476,0.787 -2.054,4.592 -3.201,6.284 -2.055,-0.544 -1.39,-2.899 -2.78,-4.048 -0.422,-0.302 -0.724,0.06 -0.845,0.422 0.906,3.082 0.121,7.614 4.35,8.521 1.509,1.692 -0.907,0.121 -1.33,1.026 -0.303,0.907 0.544,1.33 0.725,2.055 -0.967,1.088 -1.932,4.956 -4.047,2.478 -1.389,-1.632 -1.088,-4.169 -0.302,-5.982 1.449,-4.714 -5.618,-7.312 -2.476,-12.025 5.134,-0.061 10.148,0.06 15.102,0.302 0.06,0.06 0.18,0.122 0.12,0.303 m -17.821,4.049 c 1.149,1.75 1.994,4.168 2.055,6.644 -2.356,-0.784 -2.659,-3.382 -3.081,-5.619 0.363,-0.361 0.181,-1.449 1.026,-1.025 m -1.026,18.67 c 1.026,2.357 3.805,3.988 4.35,6.526 0.482,1.511 -0.847,2.96 -0.424,4.23 -0.241,0.302 -0.483,0.424 -0.845,0.424 -0.906,-1.331 -1.45,-2.84 -2.598,-4.049 -0.181,-2.358 -1.63,-4.895 -0.483,-7.131 m 1.026,13.052 c -1.328,0.665 -2.235,-0.726 -3.322,-1.148 -1.328,-1.269 -1.268,-3.324 -1.027,-5.076 0.484,-0.423 0.182,-1.57 1.147,-1.45 1.33,2.356 2.176,5.136 3.202,7.674 m -3.623,3.082 c 1.207,-1.752 2.536,0.846 4.349,0 -0.726,1.631 1.147,5.196 -1.752,5.196 -1.994,-0.967 -1.812,-3.443 -2.597,-5.196 m 1.45,11.178 c 0.18,-0.242 0.18,-0.845 0.604,-0.724 1.026,0.12 0.421,1.208 0.543,1.873 1.208,2.597 1.933,5.437 2.175,8.398 -3.021,-1.994 -4.712,-5.74 -3.322,-9.547 m 3.322,13.899 c 3.563,4.228 4.469,10.332 9.906,13.776 l 0,0.423 c -1.691,0.785 -2.659,-2.055 -4.531,-1.752 -4.289,-2.599 -5.375,-7.554 -5.375,-12.447 m 7.429,17.281 c 2.236,-0.121 3.866,1.813 5.92,1.691 -0.422,1.873 1.39,3.022 0.725,4.835 -0.121,0.242 -0.121,0.544 -0.422,0.725 -3.746,-0.846 -5.739,-3.565 -6.223,-7.251 m 8.517,-13.353 c -1.751,1.449 -4.166,0.542 -6.04,0 -2.477,-2.237 -5.86,-4.714 -5.799,-7.675 4.349,1.632 8.336,5.317 11.839,7.675 m -5.799,-36.861 c 0.665,5.378 1.753,10.938 1.33,16.376 -0.121,0.664 -0.423,1.268 -0.846,1.752 -1.751,-1.691 -2.718,-3.686 -3.384,-5.801 -0.724,-4.471 0.424,-9.425 2.9,-12.327 m -3.865,-8.399 c 1.873,-0.907 2.054,-3.263 3.745,-4.229 0.181,1.631 0.12,3.444 -0.302,4.955 -0.906,1.389 0.785,3.926 -1.45,4.653 -0.664,3.082 -2.416,5.922 -3.624,8.701 -2.476,-4.895 0.846,-9.487 1.631,-14.08 m -3.504,0.302 c -0.363,1.33 -1.51,1.149 -2.296,0.121 -1.328,-2.236 -1.267,-5.559 -0.603,-8.097 0.543,-0.181 0.663,0.242 1.027,0.424 0.966,2.234 2.778,4.592 1.872,7.552 m 0.423,21.451 c 2.174,2.297 3.142,5.076 4.954,7.553 -3.202,-0.363 -4.289,-3.444 -5.68,-5.679 0.061,-0.664 -0.241,-1.934 0.726,-1.874 m 9.424,16.376 c -2.719,0.724 -5.014,-1.572 -7.068,-3.022 -0.725,-1.692 -2.718,-3.142 -2.779,-5.258 0.182,-0.301 0.484,-0.24 0.725,-0.422 1.631,1.752 3.624,3.203 6.222,2.901 1.57,1.087 1.631,3.202 2.779,4.531 -0.242,0.545 0.423,0.907 0.121,1.27 m 0.603,15.105 c -2.718,-0.967 -6.463,-3.443 -6.523,-6.525 3.745,2.054 8.155,2.718 12.625,3.202 0.543,0.604 1.63,1.33 1.449,2.417 -2.658,0.06 -4.833,1.088 -7.551,0.906 m 2.478,3.203 c 2.355,0.485 4.227,-0.484 6.523,0.241 1.691,0.968 4.47,1.451 4.772,3.626 -1.328,1.209 -3.564,0.182 -5.074,0.907 -2.476,-1.149 -5.739,-1.451 -6.221,-4.774 m 2.415,9.246 c 2.779,0.241 4.35,2.538 6.404,4.048 0.604,0.907 2.114,0.967 2.174,1.752 -0.906,1.269 -2.718,0.062 -4.228,0.423 -2.538,-0.966 -4.228,-3.746 -4.35,-6.223 m 13.351,-11.723 c 0.543,-1.208 0.604,-3.263 1.752,-3.625 0,2.899 0.181,5.981 -0.726,8.399 -1.449,-1.027 -0.906,-3.082 -1.026,-4.774 m -3.443,14.321 c -2.236,-0.423 -4.532,-1.692 -5.679,-3.867 l 4.651,0 c 1.933,0.061 3.927,-1.753 5.8,0 0.784,0.725 3.02,0.484 2.295,2.175 -1.329,1.935 -4.773,1.692 -7.067,1.692 m 9.544,-5.922 c 0.06,0.182 -0.061,0.484 -0.303,0.424 -0.845,-0.242 -1.147,-1.148 -1.752,-1.754 -0.603,-2.174 -0.12,-4.834 0.726,-6.646 0.302,0.121 0.543,0.363 0.724,0.605 -0.241,2.416 0.423,4.893 0.605,7.371 m -7.551,11.602 c 1.389,-1.812 3.141,-2.297 4.772,-3.746 1.209,-0.906 1.691,-2.598 3.08,-2.9 1.268,1.088 2.84,0.785 4.35,1.691 -1.027,1.209 -2.176,2.055 -3.503,2.658 -0.906,0.182 -1.088,1.209 -1.873,1.693 -1.993,0.423 -4.893,2.356 -6.826,0.604 m 11.296,-9.849 c -1.45,-1.631 -2.476,-4.05 -1.994,-6.225 1.571,0.484 1.873,2.539 2.598,3.869 0.665,0.965 1.51,1.57 2.174,2.658 0.967,2.477 -1.994,0.242 -2.778,-0.302 m -4.048,12.75 c 2.718,-2.478 6.766,-2.961 8.156,-6.647 1.027,-0.545 2.476,-0.847 3.624,-0.303 1.691,0.182 3.624,0.182 5.074,0.544 0.182,1.329 -1.691,1.753 -2.175,2.901 -3.866,1.329 -7.43,3.383 -11.598,3.928 -0.966,0.06 -2.536,0.604 -3.081,-0.423 m 23.196,-13.475 c -0.845,1.027 0.665,3.564 -1.267,3.626 -0.725,-1.209 -1.028,-2.538 -1.632,-3.808 0,-1.752 0.604,-3.445 0.604,-5.076 0.242,-0.422 0.424,-1.27 1.149,-1.147 0.845,1.933 2.053,3.987 1.146,6.405 m -0.845,-15.651 c -0.422,1.027 -1.812,1.994 -2.779,1.45 -1.148,-1.51 -2.114,-3.444 -1.268,-5.378 1.087,0.605 2.96,0.484 4.047,1.269 0.423,0.907 -0.241,1.692 0,2.659 m -6.524,29.428 c 0.423,-2.175 2.839,-2.659 4.169,-4.23 0.844,-0.605 0.785,-1.813 1.63,-2.176 1.329,0 2.176,1.088 3.203,1.873 0.18,1.028 -1.451,1.451 -1.633,2.659 -2.476,0.605 -4.469,3.203 -7.369,1.874 m 14.92,-30.153 c -1.691,-1.33 -3.925,-1.994 -5.073,-3.928 -0.242,-0.664 -0.545,-1.872 0.422,-2.054 1.753,1.511 5.014,3.263 4.651,5.982 m -6.644,3.324 c 0.362,-0.605 1.026,-0.544 1.45,-1.149 2.357,-2.356 4.289,0.967 5.617,2.175 3.625,5.561 4.411,14.805 1.028,20.727 -1.088,1.51 -1.692,3.323 -3.504,4.049 -2.598,-8.037 -2.417,-17.645 -4.591,-25.802 m 12.323,0.845 c 2.295,1.511 4.712,2.961 7.067,4.048 0,1.572 -1.749,2.659 -3.201,3.203 -1.208,-2.597 -3.926,-4.29 -5.798,-6.646 -0.364,-0.967 1.327,-0.785 1.932,-0.605 m 1.148,8.882 c 0.906,0.847 2.174,0.907 2.174,2.297 -0.906,0.604 -1.147,5.65 -2.476,4.743 0.181,-1.389 -1.451,-6.798 0.302,-7.04 m 5.074,0.424 c 2.658,-2.297 6.283,-3.988 10.269,-3.324 0.724,1.39 -1.268,0.967 -1.751,1.874 -0.726,3.747 -6.343,2.72 -8.518,1.45 M 48.781,66.079 C 46.184,64.991 43.371,61.03 40.051,61.754 37.875,59.7 37.391,57.525 34.16,57.252 27.727,56.92 28.482,51.331 22.41,51.725 15.253,52.187 14.285,44.08 4.409,44.957 0.542,41.21 -2.932,38.189 -9.546,38.158 c 0.423,-0.876 0.574,-1.027 1.027,-1.843 1.269,-2.538 4.712,-5.559 5.981,-8.036 0.785,-2.84 1.328,-5.741 2.295,-8.461 1.692,-2.173 3.352,-5.347 5.225,-8.187 1.45,-5.014 6.313,-6.797 7.823,-12.235 1.087,-1.33 3.081,-2.236 2.355,-4.351 C 13.832,-9.85 14.798,-16.737 8.334,-17.584 7.338,-18.158 4.47,-19.336 2.113,-19.457 l -1.45,1.45 c -0.725,-0.906 -0.363,-1.807 -0.906,-2.774 -6.041,0.363 -7.446,-2.438 -14.694,4.783 -0.962,0.958 -1.39,2.357 -1.451,3.808 -2.173,1.269 -4.574,5.18 -6.87,6.208 -4.531,0.544 -9.666,-0.424 -12.626,3.806 -1.148,-0.664 -0.302,-2.114 -0.18,-3.081 2.477,-3.02 0.604,-8.037 3.625,-10.696 0.543,-1.026 0.241,-2.356 0.301,-3.504 -1.873,-0.362 -4.169,0.121 -5.376,-1.873 -8.518,0.363 -14.195,-6.164 -22.472,-6.525 -5.134,-2.479 -10.692,-4.895 -16.793,-5.499 -6.825,-2.599 -14.678,-2.78 -22.169,-3.808 -2.78,-1.752 -5.86,0.604 -8.155,1.754 -0.242,-0.424 -0.181,-1.029 -0.725,-1.33 -2.174,0.543 -4.047,2.175 -4.59,4.349 -0.544,0.967 -1.45,0.183 -2.055,-0.119 0.906,4.047 2.235,8.096 5.498,10.997 2.96,4.169 -0.423,8.579 -1.572,12.507 -0.724,4.472 -4.712,8.52 -2.174,13.476 1.873,3.505 2.96,7.733 2.476,11.903 -0.542,2.297 -2.838,5.257 -0.302,7.372 0.786,3.626 3.746,6.345 3.022,10.575 0.059,1.571 -0.605,2.839 -0.544,4.35 2.113,5.438 8.456,7.674 8.517,13.778 0.181,1.812 0.664,3.443 1.872,4.834 3.685,0.121 5.981,3.443 9.183,4.773 1.57,2.055 2.959,6.223 6.342,5.197 5.496,0.301 9.121,6.767 14.8,4.773 3.563,-0.362 7.792,-2.478 11.295,-0.121 2.176,2.356 4.471,-0.724 6.706,-0.423 1.33,-1.088 3.261,-0.906 4.893,-1.329 4.108,0.786 2.235,5.74 4.229,8.278 1.63,-0.724 1.209,-2.84 2.718,-3.928 0.482,-3.927 3.503,-6.404 5.799,-9.546 1.148,-0.666 2.839,-1.27 3.926,-0.605 1.873,1.088 3.111,1.48 5.8,1.058 0,0 0.906,-1.178 0.724,-1.481 -1.45,-0.545 -2.9,-1.209 -4.168,-2.176 0.785,-0.664 3.234,0.153 4.471,0.303 2.476,0.302 3.624,0.755 5.738,-0.756 0.514,-1.208 0.664,-1.359 0.846,-2.9 -4.712,1.541 -4.35,-1.178 -7.551,-1.903 0.785,-0.908 1.57,0.301 2.839,-0.242 1.873,-0.845 1.662,-2.658 5.376,-2.9 1.874,-3.083 3.081,-0.666 4.833,0 2.174,1.148 3.685,0.846 6.886,0.846 2.295,2.84 7.461,3.806 11.266,3.203 1.691,0.241 1.843,1.873 3.11,2.779 3.867,1.268 4.773,1.722 11.299,1.57 3.383,5.801 10.935,1.813 15.22,5.681 1.875,0.845 4.504,0.517 6.498,1 1.389,0.483 2.84,0.845 4.108,0.241 0.846,-0.906 0.363,-2.176 -0.725,-2.597 M -37.09,46.527 c -0.543,-0.906 -0.604,-2.598 -2.053,-2.598 -0.243,0.061 -0.061,0.362 -0.302,0.423 1.027,3.384 0.966,7.252 2.174,10.574 2.477,-1.933 0.966,-5.801 0.181,-8.399" /></g></g></g></g></svg>