<?xml version="1.0" standalone="no"?>
<!DOCTYPE svg PUBLIC "-//W3C//DTD SVG 20010904//EN"
 "http://www.w3.org/TR/2001/REC-SVG-20010904/DTD/svg10.dtd">
<svg version="1.0" xmlns="http://www.w3.org/2000/svg"
 width="700.000000pt" height="700.000000pt" viewBox="0 0 700.000000 700.000000"
 preserveAspectRatio="xMidYMid meet">
<metadata>
Created by potrace 1.11, written by Peter Selinger 2001-2013
</metadata>
<g transform="translate(0.000000,700.000000) scale(0.100000,-0.100000)"
fill="#000000" stroke="none">
<path d="M1109 4691 c-1 -3 -2 -251 -3 -551 l-1 -545 -552 -3 -553 -2 0 -95 0
-95 553 0 552 0 0 -550 c0 -364 3 -550 10 -551 5 -1 49 -2 98 -3 l87 -1 0 552
0 553 552 2 552 3 1 90 0 90 -553 3 -552 2 0 556 0 555 -95 -2 c-52 -1 -96 -4
-96 -8z"/>
<path d="M2799 4692 c-1 -4 -2 -330 -3 -725 l-1 -719 95 99 c101 106 379 398
444 467 66 70 319 337 366 386 62 65 340 358 365 385 11 12 40 42 64 68 l44
46 -687 0 c-377 0 -687 -3 -687 -7z"/>
<path d="M4824 3847 c1 -469 4 -857 8 -862 3 -6 9 -31 13 -55 16 -112 46 -195
101 -280 142 -219 374 -338 734 -378 99 -11 416 -7 495 6 39 7 86 15 105 18
187 32 407 139 511 251 90 96 161 255 184 408 4 22 9 51 12 65 4 14 8 397 10
852 l4 827 -255 0 c-190 0 -256 -3 -257 -12 -1 -7 -2 -370 -4 -807 -1 -437 -5
-811 -9 -830 -22 -116 -30 -142 -56 -183 -148 -234 -717 -266 -947 -54 -75 69
-117 160 -127 277 -3 30 -5 405 -5 832 l-1 776 -259 1 -258 0 1 -852z"/>
<path d="M4259 4081 c-110 -118 -415 -440 -630 -666 -177 -185 -234 -247 -237
-256 -2 -5 183 -9 467 -9 259 0 472 3 472 8 6 29 4 992 -1 992 -4 0 -36 -31
-71 -69z"/>
<path d="M2806 2678 c-9 -5 -11 -55 -10 -190 1 -101 2 -186 3 -189 0 -4 346
-6 769 -5 l767 1 0 193 c1 186 0 192 -20 193 -103 5 -1499 2 -1509 -3z"/>
</g>
</svg>
